Coordinates
version=1
nRows=32
nColumns=12
inDegrees=yes

Units are S.I. units (second, meters, Newtons, ...)
Angles are in degrees

endheader
time	SC_y	SC_z	SC_x	AC_y	AC_z	AC_x	GH_y	GH_z	GH_yy	EL_x	PS_y
       0.0               -31.2          37.29          1.148          60.74         -6.383         -18.32         -143.0          4.146          151.9          112.1          113.6
   0.01133              -31.21          37.29          1.159          60.74         -6.384         -18.32         -143.0          4.154          151.9          112.1          113.6
   0.02266              -31.21          37.28           1.17          60.73         -6.384         -18.32         -143.0          4.163          151.9          112.1          113.6
     0.034              -31.21          37.27          1.181          60.73         -6.385         -18.32         -143.0          4.172          151.9          112.1          113.6
   0.04533              -31.21          37.27          1.194          60.73         -6.386         -18.31         -143.0          4.182          151.8          112.1          113.6
   0.05666              -31.21          37.26          1.207          60.72         -6.386         -18.31         -142.9          4.193          151.8          112.0          113.5
   0.06799              -31.21          37.25          1.221          60.72         -6.387         -18.31         -142.9          4.205          151.8          112.0          113.5
   0.07933              -31.22          37.24          1.236          60.72         -6.388         -18.31         -142.9          4.217          151.8          112.0          113.5
   0.09066              -31.22          37.23          1.252          60.71         -6.389         -18.31         -142.9           4.23          151.8          112.0          113.5
     0.102              -31.22          37.22           1.27          60.71          -6.39          -18.3         -142.8          4.244          151.8          111.9          113.5
    0.1133              -31.22          37.21          1.289          60.71         -6.391          -18.3         -142.8          4.259          151.7          111.9          113.5
    0.1247              -31.23           37.2          1.309           60.7         -6.393          -18.3         -142.8          4.275          151.7          111.9          113.5
     0.136              -31.23          37.19           1.33          60.69         -6.394          -18.3         -142.7          4.293          151.7          111.9          113.5
    0.1473              -31.23          37.18          1.354          60.69         -6.395         -18.29         -142.7          4.312          151.7          111.8          113.4
    0.1587              -31.24          37.16          1.379          60.68         -6.397         -18.29         -142.6          4.332          151.6          111.8          113.4
      0.17              -31.24          37.15          1.406          60.68         -6.398         -18.29         -142.6          4.355          151.6          111.8          113.4
    0.1813              -31.24          37.13          1.436          60.67           -6.4         -18.28         -142.6          4.379          151.6          111.7          113.4
    0.1927              -31.25          37.11          1.469          60.66         -6.402         -18.28         -142.5          4.405          151.5          111.7          113.4
     0.204              -31.25          37.09          1.504          60.65         -6.404         -18.27         -142.4          4.434          151.5          111.6          113.3
    0.2153              -31.26          37.07          1.543          60.64         -6.406         -18.27         -142.4          4.466          151.4          111.6          113.3
    0.2266              -31.26          37.04          1.586          60.63         -6.409         -18.26         -142.3            4.5          151.4          111.5          113.3
     0.238              -31.27          37.02          1.633          60.62         -6.412         -18.26         -142.2          4.538          151.3          111.4          113.3
    0.2493              -31.28          36.99          1.684          60.61         -6.415         -18.25         -142.1           4.58          151.3          111.4          113.2
    0.2606              -31.29          36.96          1.742           60.6         -6.418         -18.24         -142.0          4.627          151.2          111.3          113.2
     0.272               -31.3          36.92          1.806          60.58         -6.422         -18.24         -141.9          4.679          151.1          111.2          113.1
    0.2833              -31.31          36.88          1.877          60.56         -6.426         -18.23         -141.8          4.736          151.0          111.1          113.1
    0.2946              -31.32          36.83          1.957          60.54         -6.431         -18.22         -141.7          4.801          151.0          111.0          113.0
     0.306              -31.33          36.78          2.047          60.52         -6.436         -18.21         -141.5          4.874          150.8          110.9          113.0
    0.3173              -31.34          36.73          2.148           60.5         -6.442         -18.19         -141.4          4.956          150.7          110.7          112.9
    0.3286              -31.36          36.66          2.263          60.47         -6.449         -18.18         -141.2           5.05          150.6          110.6          112.8
      0.34              -31.38          36.59          2.395          60.44         -6.457         -18.16         -140.9          5.156          150.4          110.4          112.7
    0.3513               -31.4           36.5          2.546           60.4         -6.466         -18.14         -140.7          5.279          150.3          110.2          112.6
